<mxfile host="app.diagrams.net" modified="2023-06-22T19:17:48.633Z" agent="Mozilla/5.0 (Windows NT 10.0; Win64; x64) AppleWebKit/537.36 (KHTML, like Gecko) Chrome/114.0.0.0 Safari/537.36" etag="hb9Xp_GnXZNmLOPDdmel" version="21.5.0" type="github">
  <diagram id="C5RBs43oDa-KdzZeNtuy" name="Page-1">
    <mxGraphModel dx="1434" dy="764" grid="1" gridSize="10" guides="1" tooltips="1" connect="1" arrows="1" fold="1" page="1" pageScale="1" pageWidth="827" pageHeight="1169" math="0" shadow="0">
      <root>
        <mxCell id="WIyWlLk6GJQsqaUBKTNV-0" />
        <mxCell id="WIyWlLk6GJQsqaUBKTNV-1" parent="WIyWlLk6GJQsqaUBKTNV-0" />
        <mxCell id="WIyWlLk6GJQsqaUBKTNV-5" value="No" style="edgeStyle=orthogonalEdgeStyle;rounded=0;html=1;jettySize=auto;orthogonalLoop=1;fontSize=11;endArrow=block;endFill=0;endSize=8;strokeWidth=1;shadow=0;labelBackgroundColor=none;" parent="WIyWlLk6GJQsqaUBKTNV-1" target="WIyWlLk6GJQsqaUBKTNV-7" edge="1">
          <mxGeometry y="10" relative="1" as="geometry">
            <mxPoint as="offset" />
            <mxPoint x="160" y="1060" as="sourcePoint" />
          </mxGeometry>
        </mxCell>
        <mxCell id="WIyWlLk6GJQsqaUBKTNV-9" value="Yes" style="edgeStyle=orthogonalEdgeStyle;rounded=0;html=1;jettySize=auto;orthogonalLoop=1;fontSize=11;endArrow=block;endFill=0;endSize=8;strokeWidth=1;shadow=0;labelBackgroundColor=none;" parent="WIyWlLk6GJQsqaUBKTNV-1" target="WIyWlLk6GJQsqaUBKTNV-12" edge="1">
          <mxGeometry y="10" relative="1" as="geometry">
            <mxPoint as="offset" />
            <mxPoint x="160" y="1180" as="sourcePoint" />
          </mxGeometry>
        </mxCell>
        <mxCell id="EC6yn7k-40ofh9lpXATY-2" style="edgeStyle=orthogonalEdgeStyle;rounded=0;orthogonalLoop=1;jettySize=auto;html=1;" edge="1" parent="WIyWlLk6GJQsqaUBKTNV-1" source="EC6yn7k-40ofh9lpXATY-0">
          <mxGeometry relative="1" as="geometry">
            <mxPoint x="380" y="150" as="targetPoint" />
          </mxGeometry>
        </mxCell>
        <mxCell id="EC6yn7k-40ofh9lpXATY-0" value="Identificar Usuário" style="rounded=1;whiteSpace=wrap;html=1;fontSize=12;glass=0;strokeWidth=1;shadow=0;" vertex="1" parent="WIyWlLk6GJQsqaUBKTNV-1">
          <mxGeometry x="320" y="70" width="120" height="40" as="geometry" />
        </mxCell>
        <mxCell id="EC6yn7k-40ofh9lpXATY-15" style="edgeStyle=orthogonalEdgeStyle;rounded=0;orthogonalLoop=1;jettySize=auto;html=1;entryX=0;entryY=0.5;entryDx=0;entryDy=0;" edge="1" parent="WIyWlLk6GJQsqaUBKTNV-1" source="EC6yn7k-40ofh9lpXATY-5" target="EC6yn7k-40ofh9lpXATY-10">
          <mxGeometry relative="1" as="geometry" />
        </mxCell>
        <mxCell id="EC6yn7k-40ofh9lpXATY-20" style="edgeStyle=orthogonalEdgeStyle;rounded=0;orthogonalLoop=1;jettySize=auto;html=1;" edge="1" parent="WIyWlLk6GJQsqaUBKTNV-1" source="EC6yn7k-40ofh9lpXATY-5">
          <mxGeometry relative="1" as="geometry">
            <mxPoint x="375" y="280" as="targetPoint" />
          </mxGeometry>
        </mxCell>
        <mxCell id="EC6yn7k-40ofh9lpXATY-5" value="Cliente entrou?" style="rhombus;whiteSpace=wrap;html=1;shadow=0;fontFamily=Helvetica;fontSize=12;align=center;strokeWidth=1;spacing=6;spacingTop=-4;" vertex="1" parent="WIyWlLk6GJQsqaUBKTNV-1">
          <mxGeometry x="320" y="150" width="110" height="90" as="geometry" />
        </mxCell>
        <mxCell id="EC6yn7k-40ofh9lpXATY-9" value="Não" style="text;html=1;align=center;verticalAlign=middle;resizable=0;points=[];autosize=1;strokeColor=none;fillColor=none;" vertex="1" parent="WIyWlLk6GJQsqaUBKTNV-1">
          <mxGeometry x="440" y="170" width="50" height="30" as="geometry" />
        </mxCell>
        <mxCell id="EC6yn7k-40ofh9lpXATY-16" style="edgeStyle=orthogonalEdgeStyle;rounded=0;orthogonalLoop=1;jettySize=auto;html=1;" edge="1" parent="WIyWlLk6GJQsqaUBKTNV-1" source="EC6yn7k-40ofh9lpXATY-10">
          <mxGeometry relative="1" as="geometry">
            <mxPoint x="640" y="195" as="targetPoint" />
          </mxGeometry>
        </mxCell>
        <mxCell id="EC6yn7k-40ofh9lpXATY-56" style="edgeStyle=orthogonalEdgeStyle;rounded=0;orthogonalLoop=1;jettySize=auto;html=1;entryX=1;entryY=0.75;entryDx=0;entryDy=0;" edge="1" parent="WIyWlLk6GJQsqaUBKTNV-1">
          <mxGeometry relative="1" as="geometry">
            <mxPoint x="537.5" y="237.5" as="sourcePoint" />
            <mxPoint x="447.5" y="322.5" as="targetPoint" />
            <Array as="points">
              <mxPoint x="538" y="323" />
            </Array>
          </mxGeometry>
        </mxCell>
        <mxCell id="EC6yn7k-40ofh9lpXATY-10" value="Vendedor entrou?" style="rhombus;whiteSpace=wrap;html=1;" vertex="1" parent="WIyWlLk6GJQsqaUBKTNV-1">
          <mxGeometry x="480" y="150" width="115" height="90" as="geometry" />
        </mxCell>
        <mxCell id="EC6yn7k-40ofh9lpXATY-18" value="Não" style="text;html=1;align=center;verticalAlign=middle;resizable=0;points=[];autosize=1;strokeColor=none;fillColor=none;" vertex="1" parent="WIyWlLk6GJQsqaUBKTNV-1">
          <mxGeometry x="600" y="170" width="50" height="30" as="geometry" />
        </mxCell>
        <mxCell id="EC6yn7k-40ofh9lpXATY-25" style="edgeStyle=orthogonalEdgeStyle;rounded=0;orthogonalLoop=1;jettySize=auto;html=1;" edge="1" parent="WIyWlLk6GJQsqaUBKTNV-1" source="EC6yn7k-40ofh9lpXATY-19">
          <mxGeometry relative="1" as="geometry">
            <mxPoint x="705" y="110" as="targetPoint" />
          </mxGeometry>
        </mxCell>
        <mxCell id="EC6yn7k-40ofh9lpXATY-27" style="edgeStyle=orthogonalEdgeStyle;rounded=0;orthogonalLoop=1;jettySize=auto;html=1;" edge="1" parent="WIyWlLk6GJQsqaUBKTNV-1" source="EC6yn7k-40ofh9lpXATY-19">
          <mxGeometry relative="1" as="geometry">
            <mxPoint x="705" y="260" as="targetPoint" />
          </mxGeometry>
        </mxCell>
        <mxCell id="EC6yn7k-40ofh9lpXATY-19" value="Administrador entrou" style="rounded=1;whiteSpace=wrap;html=1;fontSize=12;glass=0;strokeWidth=1;shadow=0;" vertex="1" parent="WIyWlLk6GJQsqaUBKTNV-1">
          <mxGeometry x="640" y="170" width="130" height="50" as="geometry" />
        </mxCell>
        <mxCell id="EC6yn7k-40ofh9lpXATY-21" value="Sim" style="text;html=1;align=center;verticalAlign=middle;resizable=0;points=[];autosize=1;strokeColor=none;fillColor=none;" vertex="1" parent="WIyWlLk6GJQsqaUBKTNV-1">
          <mxGeometry x="370" y="250" width="40" height="30" as="geometry" />
        </mxCell>
        <mxCell id="EC6yn7k-40ofh9lpXATY-24" value="Sim" style="text;html=1;align=center;verticalAlign=middle;resizable=0;points=[];autosize=1;strokeColor=none;fillColor=none;" vertex="1" parent="WIyWlLk6GJQsqaUBKTNV-1">
          <mxGeometry x="540" y="295" width="40" height="30" as="geometry" />
        </mxCell>
        <mxCell id="EC6yn7k-40ofh9lpXATY-26" value="Realizar Cadastro de veículo" style="rounded=1;whiteSpace=wrap;html=1;fontSize=12;glass=0;strokeWidth=1;shadow=0;" vertex="1" parent="WIyWlLk6GJQsqaUBKTNV-1">
          <mxGeometry x="640" y="70" width="120" height="40" as="geometry" />
        </mxCell>
        <mxCell id="EC6yn7k-40ofh9lpXATY-29" style="edgeStyle=orthogonalEdgeStyle;rounded=0;orthogonalLoop=1;jettySize=auto;html=1;" edge="1" parent="WIyWlLk6GJQsqaUBKTNV-1" source="EC6yn7k-40ofh9lpXATY-28">
          <mxGeometry relative="1" as="geometry">
            <mxPoint x="705" y="340" as="targetPoint" />
          </mxGeometry>
        </mxCell>
        <mxCell id="EC6yn7k-40ofh9lpXATY-28" value="Verificar relatórios" style="rounded=1;whiteSpace=wrap;html=1;fontSize=12;glass=0;strokeWidth=1;shadow=0;" vertex="1" parent="WIyWlLk6GJQsqaUBKTNV-1">
          <mxGeometry x="645" y="260" width="120" height="40" as="geometry" />
        </mxCell>
        <mxCell id="EC6yn7k-40ofh9lpXATY-30" value="manutenção do estoque de veículos" style="rounded=1;whiteSpace=wrap;html=1;fontSize=12;glass=0;strokeWidth=1;shadow=0;" vertex="1" parent="WIyWlLk6GJQsqaUBKTNV-1">
          <mxGeometry x="645" y="340" width="120" height="50" as="geometry" />
        </mxCell>
        <mxCell id="EC6yn7k-40ofh9lpXATY-32" style="edgeStyle=orthogonalEdgeStyle;rounded=0;orthogonalLoop=1;jettySize=auto;html=1;" edge="1" parent="WIyWlLk6GJQsqaUBKTNV-1" source="EC6yn7k-40ofh9lpXATY-31">
          <mxGeometry relative="1" as="geometry">
            <mxPoint x="380" y="380" as="targetPoint" />
          </mxGeometry>
        </mxCell>
        <mxCell id="EC6yn7k-40ofh9lpXATY-31" value="Realizar Simulação de Locação" style="rounded=1;whiteSpace=wrap;html=1;fontSize=12;glass=0;strokeWidth=1;shadow=0;" vertex="1" parent="WIyWlLk6GJQsqaUBKTNV-1">
          <mxGeometry x="312.5" y="280" width="135" height="60" as="geometry" />
        </mxCell>
        <mxCell id="EC6yn7k-40ofh9lpXATY-52" style="edgeStyle=orthogonalEdgeStyle;rounded=0;orthogonalLoop=1;jettySize=auto;html=1;entryX=0.466;entryY=-0.05;entryDx=0;entryDy=0;entryPerimeter=0;" edge="1" parent="WIyWlLk6GJQsqaUBKTNV-1" source="EC6yn7k-40ofh9lpXATY-33" target="EC6yn7k-40ofh9lpXATY-44">
          <mxGeometry relative="1" as="geometry" />
        </mxCell>
        <mxCell id="EC6yn7k-40ofh9lpXATY-33" value="Verificar Disponibilidade" style="rounded=1;whiteSpace=wrap;html=1;fontSize=12;glass=0;strokeWidth=1;shadow=0;" vertex="1" parent="WIyWlLk6GJQsqaUBKTNV-1">
          <mxGeometry x="307.5" y="530" width="150" height="50" as="geometry" />
        </mxCell>
        <mxCell id="EC6yn7k-40ofh9lpXATY-35" style="edgeStyle=orthogonalEdgeStyle;rounded=0;orthogonalLoop=1;jettySize=auto;html=1;" edge="1" parent="WIyWlLk6GJQsqaUBKTNV-1" source="EC6yn7k-40ofh9lpXATY-34">
          <mxGeometry relative="1" as="geometry">
            <mxPoint x="280" y="425" as="targetPoint" />
          </mxGeometry>
        </mxCell>
        <mxCell id="EC6yn7k-40ofh9lpXATY-41" style="edgeStyle=orthogonalEdgeStyle;rounded=0;orthogonalLoop=1;jettySize=auto;html=1;" edge="1" parent="WIyWlLk6GJQsqaUBKTNV-1" source="EC6yn7k-40ofh9lpXATY-34">
          <mxGeometry relative="1" as="geometry">
            <mxPoint x="382.5" y="530" as="targetPoint" />
          </mxGeometry>
        </mxCell>
        <mxCell id="EC6yn7k-40ofh9lpXATY-34" value="Simulação aprovada?" style="rhombus;whiteSpace=wrap;html=1;" vertex="1" parent="WIyWlLk6GJQsqaUBKTNV-1">
          <mxGeometry x="325" y="380" width="115" height="90" as="geometry" />
        </mxCell>
        <mxCell id="EC6yn7k-40ofh9lpXATY-36" value="Não" style="text;html=1;align=center;verticalAlign=middle;resizable=0;points=[];autosize=1;strokeColor=none;fillColor=none;" vertex="1" parent="WIyWlLk6GJQsqaUBKTNV-1">
          <mxGeometry x="275" y="400" width="50" height="30" as="geometry" />
        </mxCell>
        <mxCell id="EC6yn7k-40ofh9lpXATY-40" style="edgeStyle=orthogonalEdgeStyle;rounded=0;orthogonalLoop=1;jettySize=auto;html=1;" edge="1" parent="WIyWlLk6GJQsqaUBKTNV-1" source="EC6yn7k-40ofh9lpXATY-38" target="EC6yn7k-40ofh9lpXATY-31">
          <mxGeometry relative="1" as="geometry">
            <Array as="points">
              <mxPoint x="205" y="310" />
            </Array>
          </mxGeometry>
        </mxCell>
        <mxCell id="EC6yn7k-40ofh9lpXATY-38" value="Voltar para simulação" style="rounded=1;whiteSpace=wrap;html=1;fontSize=12;glass=0;strokeWidth=1;shadow=0;" vertex="1" parent="WIyWlLk6GJQsqaUBKTNV-1">
          <mxGeometry x="130" y="395" width="150" height="60" as="geometry" />
        </mxCell>
        <mxCell id="EC6yn7k-40ofh9lpXATY-42" value="Sim" style="text;html=1;align=center;verticalAlign=middle;resizable=0;points=[];autosize=1;strokeColor=none;fillColor=none;" vertex="1" parent="WIyWlLk6GJQsqaUBKTNV-1">
          <mxGeometry x="390" y="490" width="40" height="30" as="geometry" />
        </mxCell>
        <mxCell id="EC6yn7k-40ofh9lpXATY-45" style="edgeStyle=orthogonalEdgeStyle;rounded=0;orthogonalLoop=1;jettySize=auto;html=1;" edge="1" parent="WIyWlLk6GJQsqaUBKTNV-1" source="EC6yn7k-40ofh9lpXATY-44">
          <mxGeometry relative="1" as="geometry">
            <mxPoint x="530" y="670" as="targetPoint" />
          </mxGeometry>
        </mxCell>
        <mxCell id="EC6yn7k-40ofh9lpXATY-47" style="edgeStyle=orthogonalEdgeStyle;rounded=0;orthogonalLoop=1;jettySize=auto;html=1;" edge="1" parent="WIyWlLk6GJQsqaUBKTNV-1" source="EC6yn7k-40ofh9lpXATY-44">
          <mxGeometry relative="1" as="geometry">
            <mxPoint x="387.5" y="760" as="targetPoint" />
          </mxGeometry>
        </mxCell>
        <mxCell id="EC6yn7k-40ofh9lpXATY-44" value="Gerar Contrato" style="rounded=1;whiteSpace=wrap;html=1;fontSize=12;glass=0;strokeWidth=1;shadow=0;" vertex="1" parent="WIyWlLk6GJQsqaUBKTNV-1">
          <mxGeometry x="307.5" y="640" width="160" height="60" as="geometry" />
        </mxCell>
        <mxCell id="EC6yn7k-40ofh9lpXATY-46" value="Gerar relatório para adiministração" style="rounded=1;whiteSpace=wrap;html=1;fontSize=12;glass=0;strokeWidth=1;shadow=0;" vertex="1" parent="WIyWlLk6GJQsqaUBKTNV-1">
          <mxGeometry x="540" y="650" width="160" height="60" as="geometry" />
        </mxCell>
        <mxCell id="EC6yn7k-40ofh9lpXATY-49" style="edgeStyle=orthogonalEdgeStyle;rounded=0;orthogonalLoop=1;jettySize=auto;html=1;" edge="1" parent="WIyWlLk6GJQsqaUBKTNV-1" source="EC6yn7k-40ofh9lpXATY-48">
          <mxGeometry relative="1" as="geometry">
            <mxPoint x="387.5" y="890" as="targetPoint" />
          </mxGeometry>
        </mxCell>
        <mxCell id="EC6yn7k-40ofh9lpXATY-48" value="Locação efetuada?" style="rhombus;whiteSpace=wrap;html=1;shadow=0;fontFamily=Helvetica;fontSize=12;align=center;strokeWidth=1;spacing=6;spacingTop=-4;" vertex="1" parent="WIyWlLk6GJQsqaUBKTNV-1">
          <mxGeometry x="337.5" y="760" width="100" height="80" as="geometry" />
        </mxCell>
        <mxCell id="EC6yn7k-40ofh9lpXATY-50" value="Sim" style="text;html=1;align=center;verticalAlign=middle;resizable=0;points=[];autosize=1;strokeColor=none;fillColor=none;" vertex="1" parent="WIyWlLk6GJQsqaUBKTNV-1">
          <mxGeometry x="390" y="850" width="40" height="30" as="geometry" />
        </mxCell>
        <mxCell id="EC6yn7k-40ofh9lpXATY-51" value="Atualizar Veículos Disponíveis no Sistema" style="rounded=1;whiteSpace=wrap;html=1;fontSize=12;glass=0;strokeWidth=1;shadow=0;" vertex="1" parent="WIyWlLk6GJQsqaUBKTNV-1">
          <mxGeometry x="315" y="890" width="142.5" height="70" as="geometry" />
        </mxCell>
      </root>
    </mxGraphModel>
  </diagram>
</mxfile>
